<svg width="671" height="662" viewBox="0 0 671 662" fill="none" xmlns="http://www.w3.org/2000/svg">
<path fill-rule="evenodd" clip-rule="evenodd" d="M316.373 0.213184C303.643 0.695741 282.487 3.62008 266.028 7.17193C223.932 16.2567 185.715 32.666 146.805 58.3635C130.983 68.8122 121.958 75.8898 110.339 86.9599C104.146 92.8598 91.5872 105.627 86.9161 110.771C47.0174 154.711 22.5136 199.978 8.83552 255.011C3.75399 275.457 1.46566 290.522 0.282995 311.318C-0.0932114 317.934 -0.0946487 339.345 0.280601 346.18C2.63924 389.123 11.8901 425.884 30.4584 466.1C45.179 497.983 64.4638 526.765 88.573 552.836C93.584 558.254 104.89 569.414 110.093 574.078C141.354 602.099 175.515 623.386 213.651 638.61C246.153 651.585 278.163 658.92 312.426 661.246C327.248 662.252 346.793 662.251 360.857 661.244C415.723 657.315 468.997 638.982 518.347 607.047C550.726 586.094 579.485 559.593 602.917 529.115C631.724 491.648 652.393 448.292 663.147 402.777C667.551 384.136 669.542 371.897 670.462 357.8C671.181 346.798 671.179 306.996 670.459 297.421C669.928 290.369 668.659 281.845 666.605 271.544C660.175 239.295 649.007 207.695 634.608 181.012C617.651 149.587 597.694 122.542 573.845 98.6634C549.301 74.0897 525.422 56.8291 489.649 37.8033C460.186 22.1334 424.809 9.98557 392.068 4.296C383.173 2.75009 371.1 1.23078 363.368 0.684007C354.322 0.0442713 327.831 -0.221213 316.373 0.213184ZM309.796 17.4722C302.83 18.0829 292.554 19.4558 284.71 20.8239C225.688 31.1186 169.831 57.4292 124.802 96.1457C90.1632 125.928 58.0219 170.632 39.9518 214.159C30.8817 236.008 22.9735 264.431 19.2196 288.675C17.5885 299.208 17.0647 304.938 16.8923 314.133L16.7497 321.74L18.3988 321.717C19.3057 321.703 23.1148 321.569 26.8638 321.417L33.6799 321.141L33.8282 315.75C34.009 309.181 34.3338 307.805 36.146 305.936C37.0952 304.957 37.4829 304.735 38.6711 304.491C41.0933 303.995 43.6335 304.677 44.8776 306.159C46.3552 307.918 46.8543 310.279 47.0901 316.625L47.2607 321.214L52.1894 321.312C57.8987 321.426 58.5588 321.598 60.1435 323.385C61.1234 324.491 62.7435 327.505 62.7327 328.203C62.7215 328.935 61.5759 331.348 60.6735 332.541C60.165 333.213 59.2646 334.05 58.6726 334.401C57.605 335.033 57.5529 335.039 52.1808 335.114L46.7651 335.19L46.7996 340.745C46.8316 345.921 46.7967 346.419 46.2861 348.046C45.366 350.979 43.7641 352.165 40.7181 352.168C38.1442 352.171 36.1008 350.983 35.1207 348.913C34.1796 346.926 33.993 345.66 33.867 340.407L33.7431 335.233L25.5995 335.068C20.744 334.97 17.3675 334.992 17.2369 335.123C15.8038 336.558 17.0437 354.836 19.8318 373.374C24.1378 402.006 32.3083 429.668 44.389 456.516C46.8651 462.018 53.1575 474.513 56.0335 479.638C76.4529 516.022 102.784 547.189 134.966 573.065C169.301 600.672 209.136 621.438 250.124 633.096C272.376 639.425 294.978 643.235 320.797 645.009C326.682 645.414 347.751 645.417 353.443 645.015C395.547 642.038 434.824 631.524 472.962 613.019C499.182 600.297 525.035 583.167 546.808 564.089C558.178 554.126 570.665 541.488 580.277 530.214C602.269 504.42 620.153 474.643 632.743 442.859C643.052 416.832 649.817 390.203 653.225 362.233C654.809 349.231 655.611 336.499 654.915 335.398C654.724 335.095 653.86 335.041 649.477 335.054C646.612 335.063 642.797 335.154 640.999 335.257L637.731 335.445L637.649 341.591C637.572 347.296 637.529 347.818 637.045 348.871C636.669 349.69 636.206 350.207 635.374 350.736C634.09 351.552 632.253 352.17 631.112 352.17C629.158 352.17 626.642 350.602 625.734 348.818C625.013 347.403 624.779 345.249 624.777 340.01L624.775 335.158L619.813 335.157C616.951 335.156 614.445 335.044 613.893 334.892C611.816 334.32 609.94 331.292 609.9 328.445C609.861 325.708 611.367 322.765 613.24 321.915C614.259 321.453 614.891 321.392 619.573 321.305L624.775 321.208L624.784 316.742C624.796 310.029 625.413 307.4 627.397 305.604C628.614 304.502 630.508 304.076 632.525 304.451C636.502 305.189 637.612 307.66 637.861 316.324L638.004 321.33L643.527 321.174C646.565 321.087 650.43 320.948 652.115 320.865L655.179 320.713L655.032 317.333C654.338 301.458 653.62 293.966 651.687 282.446C643.792 235.396 622.665 185.954 594.198 147.91C569.427 114.804 543.242 90.3567 509.498 68.83C489.907 56.3321 471.364 46.7627 450.424 38.3436C432.842 31.2746 417.304 26.5629 400.139 23.0956C381.658 19.3624 369.238 17.9998 348.66 17.448C338.273 17.1695 313.07 17.1851 309.796 17.4722ZM346.044 27.0907C345.921 27.5021 344.469 51.3891 344.301 55.7652C344.207 58.2269 344.246 59.3552 344.43 59.469C344.809 59.7043 352.13 60.892 352.279 60.7427C352.348 60.6739 352.614 58.91 352.871 56.8226C353.58 51.0731 353.791 50.5611 355.338 50.852C357.225 51.2066 360.272 54.1628 361.814 57.1343C363.218 59.8416 363.906 60.833 364.649 61.2226C365.231 61.5284 366.312 61.6422 369.43 61.7265L373.458 61.8355L373.043 61.0254C372.815 60.58 371.636 58.3826 370.422 56.1424C369.208 53.9021 368.039 51.7234 367.824 51.3005L367.432 50.5321L369.585 48.2369C370.77 46.9745 371.954 45.5172 372.219 44.9987C373.296 42.8823 373.434 36.9745 372.456 34.7613C371.835 33.3548 369.704 31.3503 367.73 30.316C364.885 28.8249 359.922 27.5217 355.237 27.0353C351.848 26.6836 346.155 26.7179 346.044 27.0907ZM269.864 33.0867C268.562 33.7468 268.708 35.8733 270.692 45.1207C272.079 51.5923 272.061 51.4701 271.659 51.4701C271.056 51.4701 267.207 48.7178 262.441 44.8797C257.156 40.6227 254.725 38.8971 253.312 38.3975C252.059 37.9545 250.318 37.9873 248.211 38.4938C246.806 38.8314 246.524 38.9828 246.46 39.4333C246.278 40.7123 252.765 70.2101 253.485 71.3772C253.703 71.7303 254.397 71.6367 256.509 70.9696C258.583 70.315 260.628 69.3796 260.88 68.9708C260.961 68.8393 260.377 65.4545 259.582 61.4488C258.786 57.4431 258.136 53.8273 258.136 53.4138V52.6617L258.97 53.011C261.023 53.8705 267.629 58.6601 272.007 62.4645C273.389 63.6644 274.858 64.8085 275.272 65.0066C276.224 65.4616 278.378 65.4672 280.707 65.0208C282.784 64.6228 283.399 64.3475 283.595 63.7269C283.672 63.4833 282.829 59.4668 281.72 54.8013C280.612 50.136 279.043 43.4615 278.232 39.9693C277.421 36.4771 276.704 33.431 276.639 33.2005C276.533 32.8294 276.172 32.7817 273.486 32.7848C271.547 32.787 270.241 32.896 269.864 33.0867ZM407.991 35.2371C407.092 36.6148 406.188 39.2821 403.91 47.2771C400.054 60.8093 398.875 65.5009 399.139 66.2722C399.558 67.4937 402.337 68.4833 415.506 72.0993L421.605 73.7737L422.118 73.1797C422.844 72.3408 423.704 69.5895 423.733 68.0155C423.757 66.7234 423.733 66.6731 422.92 66.2756C422.46 66.0503 420.038 65.2764 417.539 64.5557C412.382 63.0683 410.967 62.5181 410.121 61.6709C408.784 60.3313 410.065 56.981 411.914 56.981C412.306 56.981 414.142 57.4678 415.996 58.0628C422.984 60.3064 424.41 60.0984 425.112 56.7325C425.686 53.9835 424.916 53.2889 419.277 51.4735C415.312 50.1971 413.243 49.2744 413.016 48.6828C412.946 48.501 413.06 47.5974 413.268 46.6745C413.591 45.2381 413.731 44.9755 414.236 44.8483C415.53 44.5231 417.99 45.0534 424.974 47.1635C427.143 47.8191 429.156 48.3548 429.447 48.3543C429.891 48.3536 430.142 47.9583 431.01 45.8984C432.423 42.5431 432.467 42.2512 431.616 41.8111C429.13 40.5242 410.214 34.698 408.522 34.698C408.423 34.698 408.184 34.9408 407.991 35.2371ZM356.385 35.869C355.095 36.1421 354.807 36.4929 354.628 38.0093C354.54 38.7578 354.322 40.0711 354.144 40.9277C353.712 43.006 354.046 43.5163 356.214 44.0861C361.069 45.3615 364.359 43.6426 364.359 39.8315C364.359 38.1215 363.805 37.2246 362.294 36.4907C360.976 35.85 357.97 35.534 356.385 35.869ZM205.4 55.2012C204.874 55.3898 203.448 56.0554 202.231 56.6803L200.019 57.8162V59.1702C200.019 61.0197 200.905 81.6446 201.232 87.4103C201.377 89.98 201.572 92.1618 201.663 92.2586C201.863 92.47 205.892 91.4193 207.334 90.7803C208.7 90.1748 209.107 89.3353 209.107 87.1211C209.107 83.3297 209.603 82.7865 215.069 80.591C218.13 79.3616 219.863 78.9246 220.903 79.1201C221.332 79.2009 222.518 79.7646 223.539 80.373C225.975 81.8252 226.626 81.7758 230.636 79.8372L233.573 78.4171L226.541 71.7124C213.093 58.8889 208.36 54.8047 206.988 54.8413C206.641 54.8507 205.926 55.0126 205.4 55.2012ZM462.383 55.1315C461.396 55.2395 460.133 55.5469 459.577 55.8143C457.456 56.8334 454.458 60.2201 453.638 62.5229C453 64.3142 453.537 66.4201 455.34 69.2006C456.498 70.9866 457.532 72.0962 460.689 74.9439C464.013 77.9432 464.977 79.779 463.831 80.9277C462.83 81.9299 460.039 81.8679 458.08 80.7997C457.002 80.2117 455.592 78.8611 451.765 74.7507L450.355 73.2362L448.698 74.8722C447.786 75.7722 446.877 76.8185 446.678 77.1973C446.333 77.8524 446.357 77.9695 447.16 79.5933C448.807 82.9219 451.761 85.8733 455.102 87.5287C457.572 88.7526 460.082 89.3226 463.747 89.4929C467.68 89.6758 468.444 89.4388 470.339 87.4479C475.275 82.2634 474.001 75.2597 467.065 69.4563C463.818 66.7385 462.601 64.4294 463.79 63.2384C465.085 61.9412 467.409 62.9736 470.976 66.4311C472.366 67.7781 473.77 69.0602 474.095 69.2802C475.763 70.4073 479.124 68.8719 479.124 66.9829C479.124 65.2206 476.816 61.9203 473.798 59.3669C471.635 57.5373 467.371 55.35 465.492 55.1058C464.768 55.0119 463.369 55.0234 462.383 55.1315ZM208.777 67.5833C208.627 68.3944 208.872 71.0439 209.354 73.8149C209.575 75.0852 209.724 75.4303 210.053 75.4303C210.516 75.4303 214.904 72.7441 215.022 72.388C215.127 72.0737 209.701 66.8046 209.272 66.8046C209.065 66.8046 208.862 67.1245 208.777 67.5833ZM322.232 72.344C287.595 75.827 265.861 80.6686 241.155 90.4044C160.328 122.256 99.588 190.359 79.6005 271.544C76.2159 285.291 74.4224 296.827 73.2117 312.635C72.8001 318.008 72.8008 340.326 73.2127 346.06C74.7565 367.558 77.901 386.061 83.067 404.043C92.535 437.001 111.221 471.532 135.18 500.344C144.146 511.127 154.468 521.595 164.691 530.275C207.373 566.514 260.484 588.471 316.014 592.835C336.119 594.415 355.476 593.715 375.805 590.673C408.876 585.723 439.854 574.426 469.891 556.361C505.569 534.904 534.566 507.015 557.387 472.21C576.898 442.451 588.894 411.003 595.82 371.458C597.122 364.022 597.743 357.735 598.211 347.258C599.086 327.687 598.618 309.352 596.92 296.702C593.178 268.829 585.521 243.884 573.237 219.55C556.888 187.164 534.62 159.191 506.406 135.604C467.01 102.668 418.836 81.1927 369.587 74.6118C355.666 72.7517 330.271 71.5355 322.232 72.344ZM161.394 77.8095C160.736 78.312 157.847 80.4727 154.974 82.6109C149.356 86.7907 145.145 90.286 144.311 91.4598C143.874 92.0744 143.837 92.2759 144.076 92.7352C145.184 94.8633 161.165 116.101 162.684 117.462C163.181 117.908 163.227 117.909 164.086 117.499C166.215 116.482 177.624 108.439 181.424 105.276C182.312 104.537 183.038 103.777 183.038 103.587C183.038 103.092 181.234 100.954 179.655 99.5773L178.304 98.3996L173.675 101.859C168.711 105.57 167.446 106.339 166.307 106.339C165.445 106.339 163.878 105.035 163.426 103.942C163.024 102.968 163.371 102.484 166.122 100.183C167.336 99.1668 169.164 97.5037 170.183 96.4869C171.705 94.9685 172.037 94.5042 172.037 93.8898C172.037 92.3701 170.202 89.8063 169.114 89.8063C168.767 89.8063 167.108 90.8088 164.965 92.3137C161.025 95.0802 158.973 96.2756 158.163 96.2756C157.437 96.2756 155.773 94.5768 155.773 93.8345C155.773 93.5151 156.018 92.9214 156.318 92.515C157.62 90.7468 165.574 83.9471 166.659 83.6742C167.353 83.4998 167.401 83.1245 166.864 82.0672C166.398 81.1488 163.006 76.8619 162.761 76.8818C162.667 76.8894 162.052 77.3068 161.394 77.8095ZM507.106 83.4533C502.839 84.4165 499.401 86.5798 496.953 89.8427C494.395 93.2506 493.19 96.8305 493.173 101.068C493.161 104.348 493.549 106.055 494.974 108.974C495.783 110.633 496.368 111.411 498.129 113.167C500.586 115.62 502.137 116.618 505.131 117.678C507.04 118.355 507.491 118.421 510.215 118.426C512.985 118.431 513.372 118.373 515.477 117.642C516.727 117.208 517.836 116.766 517.943 116.661C518.05 116.555 517.162 115.272 515.969 113.81C513.349 110.595 512.409 109.965 509.793 109.671C505.569 109.197 502.835 106.68 501.693 102.215C500.947 99.2964 501.497 98.0697 505.117 94.5766C507.94 91.8521 508.739 91.5305 511.741 91.9095C513.454 92.1257 514.334 92.3892 515.836 93.1368C519.112 94.767 521.713 97.5562 522.075 99.8281C522.309 101.291 522.931 101.645 524.99 101.486C525.875 101.418 527.19 101.161 527.914 100.915L529.229 100.469L529.206 99.031C529.157 96.0592 526.51 91.2113 523.321 88.2532C519.866 85.0486 515.86 83.3623 511.311 83.1981C509.528 83.1337 508.152 83.2171 507.106 83.4533ZM324.567 89.3334C310.955 90.0601 295.576 92.3921 281.215 95.9073C239.807 106.043 200.408 126.462 170.721 153.171C126.079 193.337 99.7509 241.988 91.4542 299.649C90.449 306.633 90.2864 308.717 89.9585 318.806C89.3864 336.396 90.4038 357.358 92.3977 369.062C101.75 423.958 129.351 475.121 169.406 511.808C180.543 522.008 191.718 530.418 205.052 538.634C234.532 556.797 267.354 568.792 302.86 574.377C312.702 575.926 332.206 576.728 348.034 576.235C360.949 575.833 364.665 575.457 375.759 573.429C410.942 566.998 441.489 554.63 471.59 534.63C494.17 519.628 510.118 505.608 525.156 487.544C530.743 480.834 538.883 469.749 544.008 461.873C570.163 421.678 584.413 367.797 581.962 318.361C580.285 284.545 571.865 253.585 555.966 222.785C545.416 202.345 534.573 187.228 517.728 169.474C476.973 126.517 422.93 98.6332 366.358 91.3719C354.097 89.7982 334.115 88.8235 324.567 89.3334ZM551.591 119.731C545.932 124.653 541.928 128.716 540.254 131.235C535.921 137.753 536.53 143.329 542.212 149.142C545.121 152.118 547.886 153.733 551.245 154.42C555.344 155.257 559.957 153.805 565.342 149.985C566.393 149.239 569.487 146.418 572.217 143.717L577.18 138.805L575.482 136.529C573.586 133.988 572.43 132.695 572.052 132.695C571.914 132.696 570.455 133.896 568.811 135.362C562.691 140.819 561.717 141.651 560.081 142.819C555.073 146.395 551.759 146.741 549.006 143.977C547.348 142.312 546.481 140.583 546.632 139.241C546.833 137.459 548.192 135.82 555.386 128.687L562.208 121.924L561.732 121.379C561.471 121.08 560.3 119.756 559.13 118.439C557.96 117.121 556.888 115.913 556.748 115.755C556.558 115.539 555.263 116.538 551.591 119.731ZM115.673 115.913C115.257 116.012 114.449 116.368 113.878 116.703C112.492 117.517 108.737 121.472 107.736 123.172C104.253 129.09 104.253 135.555 107.736 141.507C108.809 143.34 112.007 146.498 113.924 147.616C118.582 150.334 125.259 150.721 130.595 148.581C133.973 147.226 137.582 144.173 139.216 141.287C140.672 138.715 141.507 134.546 140.968 132.54C140.588 131.126 139.239 129.991 137.129 129.311C134.914 128.596 134.725 128.716 134.323 131.099C133.905 133.579 132.906 135.459 130.857 137.619C129.504 139.047 128.733 139.625 127.115 140.429C125.261 141.349 124.914 141.44 123.265 141.44C121.711 141.44 121.266 141.339 120.138 140.729C118.279 139.723 115.381 136.746 114.456 134.893C113.46 132.896 113.302 131.694 113.786 129.801C114.79 125.875 117.719 123.59 121.747 123.59C123.044 123.59 123.356 123.503 123.856 123.002C124.424 122.433 124.443 122.302 124.443 119.048V115.683L120.437 115.708C118.233 115.721 116.09 115.814 115.673 115.913ZM326.657 137.038C290.73 139.18 256.073 153.556 229.197 177.464C225.964 180.341 219.351 186.938 216.43 190.199C201.524 206.851 190.707 225.191 183.656 245.77C174.637 272.092 172.543 300.93 177.684 328.03L178.309 331.324H213.038H247.767L246.717 328.269C244.538 321.932 243.149 315.335 242.454 308.018C241.915 302.337 242.09 290.381 242.787 285.292C244.181 275.109 246.652 266.766 250.855 258.051C253.343 252.892 254.736 250.418 257.555 246.146C261.023 240.893 264.619 236.67 270.727 230.683C278.824 222.743 284.012 218.989 293.532 214.179C304.176 208.801 314.652 205.628 326.178 204.291C329.701 203.883 341.373 203.885 345.072 204.294C363.78 206.364 380.664 213.456 395.459 225.458C399.183 228.479 406.035 235.42 409.14 239.318C420.19 253.188 427.216 269.704 429.064 286.16C429.581 290.761 429.65 305.258 429.176 309.76C428.555 315.669 427.214 321.616 425.083 327.91L423.927 331.324H458.663H493.398L493.676 330.066C494.246 327.494 495.377 320.286 495.867 316.11C496.512 310.596 496.771 295.563 496.375 286.519C496.107 280.385 495.315 274.358 493.698 266.153C489.024 242.429 476.947 216.729 461.291 197.191C456.68 191.436 449.561 184.013 442.651 177.756C435.958 171.695 432.335 168.87 424.953 163.957C395.916 144.63 360.764 135.004 326.657 137.038ZM83.9045 157.867C75.8098 159.854 70.8342 164.402 68.5733 171.882C68.0123 173.738 67.9231 174.461 67.9085 177.261C67.8893 180.994 68.3593 183.103 69.855 185.995C70.8856 187.988 73.9388 191.195 75.7729 192.211C80.545 194.855 88.7244 195.137 93.4984 192.822C96.6032 191.316 100.433 187.222 102.34 183.371C103.737 180.548 104.198 178.338 104.038 175.224C103.704 168.726 99.8434 162.803 94.0298 159.87C90.9149 158.298 86.0603 157.338 83.9045 157.867ZM592.488 164.399C584.539 168.714 569.289 177.683 569.289 178.044C569.289 178.42 570.988 181.457 573.475 185.527C578.449 193.668 582.309 199.304 582.911 199.304C583.318 199.304 584.792 198.27 586.784 196.588L587.872 195.669L585.033 190.598C583.471 187.809 582.018 184.972 581.804 184.293C581.434 183.121 581.437 183.021 581.869 182.28C582.119 181.851 582.725 181.292 583.215 181.037C585.041 180.088 586.648 181.388 589.02 185.732C591.116 189.572 592.918 191.402 594.269 191.063C595.044 190.868 596.029 190.026 596.46 189.191C597.003 188.138 596.661 187.019 594.251 181.966C591.671 176.556 591.644 176.413 592.995 175.255C594.191 174.23 594.927 173.982 595.711 174.339C596.596 174.743 598.296 177.348 600.685 181.961C603.227 186.87 603.335 186.968 605.473 186.293C606.93 185.833 608.751 184.396 608.751 183.707C608.751 181.898 597.1 162.642 596.008 162.646C595.848 162.647 594.264 163.436 592.488 164.399ZM82.1108 167.487C80.1877 168.225 77.8398 170.648 76.6698 173.103C75.8978 174.723 75.7729 175.218 75.7729 176.662C75.7729 178.795 76.5693 180.522 78.3975 182.354C82.4038 186.368 88.1487 186.648 92.2102 183.029C93.6562 181.74 94.9413 179.178 95.2431 176.981C95.5877 174.471 95.1589 173.23 93.1891 171.033C90.1336 167.625 85.565 166.163 82.1108 167.487ZM401.982 181.154C395.005 188.172 387.587 195.677 385.498 197.833C381.718 201.734 381.702 201.756 382.226 202.152C382.516 202.371 384.602 203.572 386.861 204.821C404.316 214.47 418.962 229.305 429.611 248.125C430.971 250.529 432.148 252.496 432.226 252.496C432.304 252.496 439.844 245.006 448.98 235.853L465.591 219.21L463.293 215.786C453.217 200.778 443.171 189.705 430.095 179.198C425.381 175.409 415.468 168.396 414.828 168.396C414.74 168.396 408.959 174.137 401.982 181.154ZM254.419 170.101C247.229 174.218 235.714 183.575 227.878 191.671C220.454 199.339 215.289 205.695 209.02 214.875L205.995 219.305L213.351 226.694C217.397 230.758 224.939 238.241 230.111 243.323C238.078 251.15 239.566 252.512 239.839 252.23C240.016 252.047 241.076 250.155 242.194 248.026C244.494 243.646 246.374 240.577 248.996 236.922C255.097 228.413 263.639 219.5 271.193 213.759C275.105 210.787 285.088 204.466 288.582 202.749C289.331 202.381 289.945 202.018 289.945 201.943C289.945 201.482 283.302 194.527 273.103 184.31C261.923 173.109 257.462 168.875 256.841 168.875C256.687 168.875 255.597 169.427 254.419 170.101ZM328.809 236.851C324.179 237.477 319.718 238.446 316.671 239.486L314.818 240.119V258.489V276.859L310.334 277.016C307.867 277.102 301.06 277.187 295.206 277.204C289.353 277.221 283.01 277.302 281.11 277.384L277.656 277.534L276.642 281.596C275.091 287.807 274.818 290.03 274.699 297.421C274.584 304.525 274.82 307.313 275.966 312.406C276.808 316.15 277.229 317.035 278.463 317.666C280.03 318.467 283.396 318.617 299.838 318.622L314.874 318.626L314.78 324.975L314.686 331.324H335.506H356.325L356.231 324.975L356.137 318.626H374.79H393.443L394.292 315.571C396.095 309.086 396.679 304.761 396.679 297.9C396.679 292.866 396.338 289.139 395.506 285.081C395.086 283.039 393.614 277.548 393.386 277.179C393.286 277.017 387.044 276.935 374.715 276.935H356.193V258.515V240.095L353.622 239.243C348.46 237.534 341.767 236.661 334.257 236.718C331.655 236.738 329.204 236.797 328.809 236.851ZM52.2152 240.965C49.6337 241.796 47.6627 243.514 46.5475 245.907C45.9689 247.148 45.8773 247.64 45.8773 249.506C45.8773 251.459 45.952 251.819 46.6525 253.245C47.5888 255.15 49.3038 256.834 51.2064 257.715C52.2975 258.221 52.9389 258.35 54.3792 258.354C55.939 258.359 56.3992 258.254 57.765 257.58C59.7479 256.602 61.7533 254.647 62.6495 252.819C63.2445 251.605 63.3356 251.145 63.3306 249.381C63.3258 247.652 63.2294 247.162 62.6944 246.137C61.595 244.031 59.3825 242.32 56.2133 241.125C54.3244 240.413 53.9726 240.399 52.2152 240.965ZM614.327 241.186C611.874 242.063 610.046 243.752 608.935 246.165C608.492 247.128 608.393 247.761 608.393 249.62C608.393 251.754 608.443 251.991 609.203 253.395C610.224 255.28 611.684 256.638 613.731 257.603C616.707 259.008 620.216 258.519 622.673 256.358C624.829 254.462 626.025 251.223 625.538 248.599C624.969 245.534 623.026 242.893 620.392 241.603C618.563 240.707 616.132 240.54 614.327 241.186ZM312.905 340.837C304.63 342.257 295.076 344.173 290.304 345.37C277.523 348.575 261.274 354.352 260.188 356.076C259.867 356.586 260.208 356.84 263.278 358.38C266.214 359.853 269.358 361.83 275.631 366.15L280.449 369.468L285.974 367.892C304.006 362.748 309.882 361.927 328.57 361.938C345.499 361.948 346.26 362.056 371.978 368.074C393.946 373.214 401.377 374.217 415.007 373.879C429.903 373.51 435.409 372.752 443.994 369.888C451.7 367.317 466.479 360.128 472.308 356.115C473.492 355.3 475.537 354.006 476.852 353.24C479.615 351.631 482.712 349.587 482.712 349.372C482.712 349.031 478.836 349.61 472.786 350.853C453.329 354.851 436.439 355.76 417.3 353.839C406.074 352.712 396.69 351.024 381.959 347.479C361.451 342.545 354.717 341.483 340.289 340.912C334.516 340.683 314.125 340.627 312.905 340.837ZM561.158 340.831C554.861 341.477 550.866 341.982 548.003 342.495C529.762 345.76 506.972 355.142 471.83 373.854C462.575 378.782 440.52 390.786 440.26 391.037C439.845 391.437 459.837 391.1 463.339 390.648C475.431 389.087 486.04 386.028 511.411 376.784C523.146 372.508 528.719 370.68 536.765 368.466C547.12 365.616 552.643 364.486 562.234 363.255L563.669 363.071L564.076 359.836C564.966 352.775 565.201 346.819 564.725 343.388C564.325 340.505 564.326 340.506 561.158 340.831ZM231.35 341.612C232.666 342.382 237.95 344.53 238.803 344.642C239.708 344.761 240.145 344.628 242.232 343.597C243.547 342.947 245 342.185 245.46 341.903L246.297 341.389L238.644 341.396C234.149 341.4 231.139 341.489 231.35 341.612ZM175.983 354.729C163.384 355.166 146.131 359.083 131.618 364.801C126.89 366.663 119.49 370.235 114.398 373.111C112.359 374.263 110.608 375.286 110.507 375.385C109.78 376.093 114.748 393.175 116.947 397.527C117.443 398.51 117.605 398.655 118.056 398.519C119.668 398.035 122.111 396.825 125.463 394.852C142.041 385.092 160.212 379.619 179.755 378.5C187.681 378.046 197.741 378.726 205.044 380.21C212.585 381.743 229.029 386.622 260.886 396.779C267.411 398.86 277.621 402.501 282.381 404.445C287.735 406.633 291.995 408.236 292.45 408.236C292.651 408.236 292.815 408.145 292.815 408.033C292.815 407.017 279.365 393.598 272.486 387.751C265.975 382.218 256.4 375.795 247.88 371.246C233.784 363.72 217.461 358.228 203.367 356.27C196.732 355.348 183.282 354.436 178.972 354.617C178.381 354.642 177.035 354.692 175.983 354.729ZM307.284 380.712C305.495 380.881 302.654 381.319 295.745 382.489C295.317 382.561 294.967 382.738 294.967 382.882C294.967 383.593 307.146 397.129 310.694 400.362C312.856 402.333 313.754 402.694 317.495 403.1C332.837 404.766 351.214 409.583 374.37 418.008C389.301 423.44 400.02 426.458 410.245 428.109C426.184 430.682 443.363 430.197 460.708 426.684C481.558 422.46 500.907 413.284 521.337 397.931C526.748 393.864 533.074 388.829 532.772 388.829C532.412 388.829 525.816 391.092 510.574 396.446C489.587 403.818 481.292 406.476 473.025 408.481C461.796 411.204 454.35 411.988 441.934 411.755C431.492 411.559 427.05 411.057 418.017 409.047C408.362 406.898 400.423 404.212 379.871 396.138C367.121 391.13 364.45 390.134 357.628 387.848C345.274 383.708 335.089 381.434 325.592 380.693C321.858 380.402 310.425 380.414 307.284 380.712ZM550.156 402.696C542.601 405.754 531.94 411.064 519.782 417.825C496.868 430.568 478.911 438.225 461.924 442.499C451.42 445.141 447.571 445.481 428.182 445.482C406.365 445.484 405.088 445.308 378.077 438.578C363.455 434.934 353.147 432.548 344.953 430.91C339.971 429.914 335.427 429.201 335.241 429.386C334.94 429.689 335.766 430.609 338.29 432.782C350.085 442.937 364.093 451.972 378.555 458.752C393.348 465.688 403.923 468.624 419.811 470.211C425.629 470.791 437.667 470.788 443.608 470.204C465.428 468.059 477.62 464.634 499.573 454.479C502.203 453.262 510.598 449.191 518.227 445.433C532.231 438.536 539.235 435.177 541.426 434.309C542.922 433.717 543.369 433.316 544.064 431.942C545.412 429.281 554.939 402.693 554.939 401.595C554.939 400.996 553.588 401.307 550.156 402.696ZM200.019 404.306C195.14 404.501 188.657 404.928 185.745 405.247C172.528 406.693 153.976 414.002 140.03 423.257C135.165 426.485 132.02 429.071 131.4 430.355C131.125 430.924 130.9 431.682 130.9 432.04C130.9 433.018 131.743 435.331 133.045 437.932C134.007 439.853 139.917 450.857 140.1 451.069C140.131 451.104 141.275 450.204 142.643 449.069C147.096 445.376 155.704 439.907 162.193 436.649C183.673 425.862 215.613 424.575 245.938 433.275C250.878 434.691 257.907 437.092 262.871 439.057C279.302 445.562 293.592 453.801 329.168 477.277C365.878 501.503 383.549 510.147 405.222 514.485C412.613 515.964 421.422 517.095 428.899 517.525C442.75 518.321 461.754 516.251 470.718 512.97C476.037 511.023 482.889 506.565 490.604 500.032C496.197 495.295 506.616 484.683 508.622 481.679C509.723 480.029 509.506 480.007 506.108 481.422C503.403 482.547 497.557 484.35 490.843 486.128C479.865 489.036 470.874 490.788 460.948 491.953C451.549 493.056 449.333 493.176 438.466 493.165C429.313 493.157 427.461 493.09 423.055 492.61C404.254 490.563 388.967 485.882 371.38 476.786C361.644 471.75 350.898 465.262 333.114 453.683C304.288 434.915 290.09 426.745 273.801 419.552C253.131 410.424 237.796 406.229 219.75 404.768C215.471 404.421 203.906 404.15 200.019 404.306ZM199.899 453.304C192.001 453.617 186.783 454.338 179.81 456.083C167.767 459.095 155.907 464.148 152.946 467.526C152.176 468.405 152.067 468.746 152.335 469.444C152.57 470.058 153.802 470.584 154.595 470.409C155.165 470.284 155.268 470.324 155.152 470.628C154.953 471.147 156.352 473.565 158.793 476.922C161.6 480.782 164.091 483.688 164.731 483.849C165.07 483.934 166.027 483.628 167.378 483.003C171.524 481.084 181.669 478.172 186.992 477.374C191.134 476.752 200.197 476.456 210.303 476.612C222.505 476.8 225.269 477.098 233.143 479.069C252.348 483.877 268.227 490.879 286.477 502.589C292.705 506.584 296.97 509.552 306.686 516.65C317.496 524.547 330.833 533.498 337.379 537.248C353.454 546.458 369.992 552.218 383.903 553.45C395.361 554.465 414.545 549.287 427.285 541.742C430.591 539.785 429.903 539.464 421.288 538.939C418.089 538.745 413.955 538.363 412.103 538.092C397.305 535.926 379.207 531.246 366.478 526.293C355.616 522.067 336.247 510.66 320.797 499.39C291.824 478.256 268.892 465.66 247.796 459.29C235.577 455.6 225.319 453.863 212.336 453.283C206.633 453.028 206.895 453.028 199.899 453.304ZM187.104 498.467C184.158 498.819 182.321 499.37 182.321 499.9C182.321 500.548 190.221 507.222 195.834 511.317C202.29 516.027 210.121 520.139 220.609 524.326C230.157 528.137 235.871 530.796 257.179 541.338C278.282 551.778 282.56 553.653 290.73 556.047C299.114 558.503 317.42 561.332 331.143 562.293C336.132 562.642 336.138 562.544 331.278 559.912C326.263 557.195 319.886 553.331 310.633 547.402C302.841 542.409 298.831 540.017 298.255 540.017C298.04 540.017 297.274 539.499 296.551 538.865C294.305 536.896 281.837 528.719 272.725 523.238C255.199 512.696 239.07 505.695 223.098 501.695C217.591 500.316 212.016 499.489 203.606 498.802C200.418 498.542 188.502 498.3 187.104 498.467ZM334.369 609.988C331.76 610.642 329.066 612.863 327.839 615.372C327.209 616.659 327.135 617.048 327.138 619.085C327.142 621.083 327.22 621.508 327.776 622.56C329.27 625.383 332.052 627.082 336.011 627.59C338.042 627.851 339.005 627.436 341.162 625.371C343.317 623.308 344.139 622.074 344.444 620.442C345.046 617.21 342.307 612.138 339.123 610.588C337.734 609.912 335.697 609.655 334.369 609.988Z" fill="#FCFDFC"/>
</svg>
