<svg width="78" height="77" viewBox="0 0 78 77" fill="none" xmlns="http://www.w3.org/2000/svg">
<path fill-rule="evenodd" clip-rule="evenodd" d="M36.7765 0.0247963C35.2968 0.0809245 32.8376 0.421067 30.9243 0.834197C26.0309 1.89088 21.5884 3.79952 17.0652 6.7885C15.2261 8.00384 14.1769 8.82706 12.8263 10.1147C12.1064 10.8009 10.6465 12.2859 10.1035 12.8843C5.46552 17.9951 2.61708 23.2603 1.02708 29.6614C0.436381 32.0395 0.170375 33.7919 0.0328965 36.2107C-0.0108353 36.9802 -0.0110024 39.4706 0.0326182 40.2656C0.306797 45.2605 1.38216 49.5364 3.54062 54.2141C5.2518 57.9225 7.49356 61.2703 10.2961 64.3027C10.8786 64.9329 12.1929 66.231 12.7977 66.7734C16.4316 70.0327 20.4026 72.5087 24.8358 74.2794C28.6139 75.7886 32.3349 76.6418 36.3178 76.9123C38.0408 77.0293 40.3127 77.0292 41.9476 76.9121C48.3255 76.455 54.5183 74.3226 60.2549 70.6082C64.0189 68.1711 67.3619 65.0886 70.0858 61.5436C73.4343 57.1856 75.837 52.1428 77.0871 46.8487C77.5991 44.6805 77.8305 43.2569 77.9375 41.6173C78.0211 40.3376 78.0208 35.708 77.9371 34.5943C77.8754 33.7741 77.7279 32.7826 77.4891 31.5844C76.7417 27.8335 75.4434 24.1578 73.7696 21.0542C71.7985 17.3991 69.4786 14.2533 66.7063 11.476C63.8532 8.61768 61.0774 6.61003 56.919 4.39706C53.4941 2.57442 49.3817 1.16146 45.5757 0.499686C44.5417 0.319875 43.1383 0.143157 42.2395 0.0795597C41.188 0.00514939 38.1086 -0.0257302 36.7765 0.0247963ZM36.012 2.03226C35.2022 2.1033 34.0077 2.26299 33.096 2.42212C26.235 3.61954 19.7419 6.67984 14.5075 11.1831C10.481 14.6472 6.74472 19.8469 4.64417 24.9098C3.58983 27.451 2.67054 30.7571 2.23417 33.577C2.04456 34.8022 1.98368 35.4687 1.96363 36.5381L1.94706 37.423L2.13875 37.4202C2.24418 37.4187 2.68697 37.403 3.12276 37.3854L3.91511 37.3533L3.93234 36.7262C3.95336 35.9621 3.99111 35.8021 4.20177 35.5847C4.31211 35.4708 4.35718 35.445 4.4953 35.4167C4.77687 35.3589 5.07215 35.4383 5.21677 35.6106C5.38853 35.8152 5.44655 36.0899 5.47397 36.828L5.49379 37.3617L6.06672 37.3731C6.7304 37.3864 6.80713 37.4064 6.99135 37.6143C7.10525 37.7429 7.29358 38.0935 7.29233 38.1747C7.29102 38.2598 7.15785 38.5405 7.05296 38.6792C6.99385 38.7574 6.88918 38.8548 6.82037 38.8955C6.69626 38.9691 6.6902 38.9698 6.06572 38.9785L5.43618 38.9873L5.44019 39.6335C5.44391 40.2355 5.43985 40.2934 5.3805 40.4827C5.27354 40.8239 5.08733 40.9618 4.73325 40.9622C4.43405 40.9625 4.19651 40.8243 4.08258 40.5836C3.97318 40.3525 3.9515 40.2052 3.93685 39.5942L3.92244 38.9924L2.9758 38.9732C2.41138 38.9617 2.01887 38.9643 2.00369 38.9795C1.83711 39.1465 1.98123 41.2724 2.30534 43.4287C2.80588 46.759 3.75566 49.9765 5.15998 53.0993C5.4478 53.7393 6.17926 55.1926 6.51358 55.7887C8.88722 60.0207 11.9481 63.6458 15.6891 66.6555C19.6803 69.8667 24.3109 72.2821 29.0755 73.6381C31.6622 74.3742 34.2895 74.8174 37.2909 75.0237C37.9749 75.0708 40.4241 75.0712 41.0858 75.0244C45.9802 74.6781 50.5458 73.4552 54.9792 71.3028C58.0271 69.8231 61.0324 67.8306 63.5633 65.6116C64.8851 64.4527 66.3366 62.9827 67.454 61.6714C70.0104 58.6713 72.0894 55.2077 73.5529 51.5108C74.7513 48.4835 75.5376 45.3862 75.9337 42.1328C76.1179 40.6205 76.2111 39.1396 76.1302 39.0115C76.108 38.9763 76.0076 38.97 75.4981 38.9715C75.165 38.9726 74.7215 38.9832 74.5126 38.9952L74.1327 39.017L74.1231 39.7319C74.1141 40.3955 74.1091 40.4562 74.053 40.5786C74.0093 40.6739 73.9554 40.734 73.8587 40.7956C73.7095 40.8904 73.4959 40.9623 73.3633 40.9623C73.1361 40.9623 72.8436 40.78 72.738 40.5725C72.6543 40.4079 72.6271 40.1574 72.6269 39.548L72.6266 38.9836L72.0498 38.9835C71.7171 38.9834 71.4258 38.9704 71.3617 38.9527C71.1202 38.8862 70.9021 38.534 70.8974 38.2028C70.8929 37.8845 71.068 37.5421 71.2857 37.4433C71.4042 37.3896 71.4776 37.3825 72.022 37.3723L72.6266 37.3611L72.6276 36.8416C72.6291 36.0608 72.7008 35.755 72.9313 35.5461C73.0729 35.4179 73.293 35.3684 73.5275 35.412C73.9897 35.4979 74.1188 35.7853 74.1477 36.793L74.1645 37.3753L74.8065 37.3571C75.1596 37.347 75.6088 37.3309 75.8047 37.3211L76.1609 37.3034L76.1438 36.9103C76.0632 35.0638 75.9797 34.1925 75.755 32.8525C74.8372 27.3799 72.3813 21.6291 69.0722 17.204C66.1927 13.3533 63.1489 10.5098 59.2263 8.0059C56.949 6.55223 54.7934 5.43916 52.3593 4.4599C50.3155 3.63768 48.5092 3.08964 46.514 2.68634C44.3656 2.25212 42.9218 2.09363 40.5297 2.02944C39.3223 1.99706 36.3927 1.99887 36.012 2.03226ZM40.2257 3.15103C40.2114 3.19888 40.0426 5.97729 40.0231 6.48629C40.0121 6.77261 40.0166 6.90385 40.038 6.91709C40.0822 6.94445 40.9331 7.0826 40.9505 7.06524C40.9584 7.05724 40.9894 6.85207 41.0193 6.60927C41.1017 5.94053 41.1263 5.88097 41.3061 5.9148C41.5254 5.95605 41.8796 6.2999 42.0588 6.64553C42.2221 6.96042 42.302 7.07575 42.3884 7.12106C42.4561 7.15662 42.5817 7.16986 42.9441 7.17967L43.4124 7.19235L43.3642 7.09812C43.3376 7.04632 43.2006 6.79073 43.0595 6.53015C42.9184 6.26958 42.7825 6.01616 42.7575 5.96698L42.712 5.8776L42.9622 5.61064C43.0999 5.4638 43.2376 5.2943 43.2683 5.23399C43.3936 4.98783 43.4096 4.30066 43.296 4.04323C43.2238 3.87964 42.9761 3.64649 42.7466 3.52618C42.4159 3.35275 41.8389 3.20117 41.2943 3.1446C40.9003 3.10368 40.2386 3.10767 40.2257 3.15103ZM31.3702 3.84846C31.2188 3.92524 31.2359 4.17257 31.4664 5.24818C31.6277 6.00092 31.6255 5.98671 31.5788 5.98671C31.5087 5.98671 31.0613 5.66658 30.5073 5.22014C29.8929 4.72499 29.6104 4.52428 29.4461 4.46617C29.3004 4.41464 29.0981 4.41846 28.8531 4.47738C28.6898 4.51664 28.657 4.53426 28.6496 4.58665C28.6284 4.73541 29.3825 8.16643 29.4662 8.30218C29.4915 8.34326 29.5722 8.33236 29.8178 8.25477C30.0588 8.17864 30.2966 8.06983 30.3259 8.02229C30.3353 8.00699 30.2674 7.61328 30.1749 7.14737C30.0825 6.68145 30.0069 6.26088 30.0069 6.21278V6.1253L30.1039 6.16593C30.3425 6.2659 31.1104 6.823 31.6193 7.2655C31.7799 7.40507 31.9507 7.53815 31.9989 7.56119C32.1095 7.61412 32.3599 7.61476 32.6306 7.56284C32.8721 7.51655 32.9435 7.48453 32.9664 7.41235C32.9753 7.38401 32.8773 6.91684 32.7484 6.37417C32.6196 5.83153 32.4371 5.05518 32.3429 4.64899C32.2487 4.2428 32.1653 3.8885 32.1577 3.86169C32.1454 3.81852 32.1034 3.81298 31.7912 3.81334C31.5658 3.81359 31.414 3.82627 31.3702 3.84846ZM47.4266 4.09858C47.3221 4.25883 47.217 4.56906 46.9522 5.499C46.504 7.07299 46.367 7.61869 46.3977 7.7084C46.4463 7.85047 46.7694 7.96558 48.3003 8.38618L49.0092 8.58092L49.0689 8.51184C49.1532 8.41427 49.2532 8.09424 49.2566 7.91117C49.2593 7.76088 49.2566 7.75502 49.1621 7.70879C49.1086 7.68259 48.8271 7.59258 48.5366 7.50875C47.9371 7.33573 47.7726 7.27175 47.6743 7.1732C47.5188 7.01739 47.6677 6.62769 47.8827 6.62769C47.9282 6.62769 48.1417 6.68432 48.3572 6.75352C49.1696 7.01449 49.3353 6.9903 49.4169 6.59879C49.4837 6.27905 49.3941 6.19826 48.7386 5.9871C48.2777 5.83864 48.0371 5.73132 48.0108 5.66251C48.0027 5.64135 48.0159 5.53626 48.0401 5.42891C48.0777 5.26183 48.0939 5.23129 48.1527 5.21649C48.303 5.17867 48.589 5.24035 49.4008 5.48579C49.653 5.56204 49.887 5.62435 49.9208 5.6243C49.9724 5.62421 50.0016 5.57823 50.1025 5.33864C50.2668 4.94836 50.2718 4.91442 50.173 4.86322C49.8839 4.71354 47.6851 4.03587 47.4884 4.03587C47.4769 4.03587 47.4491 4.06411 47.4266 4.09858ZM41.4278 4.17207C41.2778 4.20384 41.2443 4.24464 41.2236 4.42102C41.2133 4.50809 41.1879 4.66084 41.1673 4.76047C41.117 5.00221 41.1559 5.06157 41.4079 5.12784C41.9722 5.27619 42.3547 5.07625 42.3547 4.63297C42.3547 4.43407 42.2903 4.32975 42.1147 4.24439C41.9614 4.16987 41.612 4.13311 41.4278 4.17207ZM23.8766 6.42068C23.8155 6.44262 23.6497 6.52004 23.5082 6.59272L23.2511 6.72485V6.88233C23.2511 7.09746 23.354 9.49642 23.3921 10.1671C23.409 10.466 23.4316 10.7197 23.4422 10.731C23.4654 10.7556 23.9338 10.6334 24.1014 10.559C24.2603 10.4886 24.3075 10.391 24.3075 10.1334C24.3075 9.69242 24.3652 9.62924 25.0006 9.37388C25.3564 9.23088 25.5578 9.18005 25.6787 9.20279C25.7286 9.21218 25.8665 9.27776 25.9851 9.34852C26.2683 9.51744 26.3441 9.51169 26.8102 9.2862L27.1515 9.12102L26.3342 8.34117C24.7709 6.84962 24.2207 6.37456 24.0612 6.37882C24.0209 6.37991 23.9378 6.39875 23.8766 6.42068ZM53.7494 6.41257C53.6347 6.42514 53.4879 6.4609 53.4232 6.492C53.1767 6.61053 52.8282 7.00446 52.7329 7.27231C52.6588 7.48065 52.7211 7.72559 52.9307 8.04902C53.0654 8.25675 53.1855 8.38581 53.5525 8.71703C53.9389 9.0659 54.051 9.27943 53.9177 9.41304C53.8015 9.52961 53.477 9.5224 53.2493 9.39816C53.1239 9.32977 52.96 9.17266 52.5151 8.69457L52.3512 8.51841L52.1586 8.7087C52.0527 8.81338 51.947 8.93508 51.9238 8.97914C51.8837 9.05534 51.8865 9.06897 51.9798 9.25783C52.1713 9.64499 52.5146 9.98828 52.9031 10.1808C53.1902 10.3232 53.4819 10.3895 53.908 10.4093C54.3652 10.4306 54.454 10.403 54.6743 10.1714C55.2481 9.56841 55.1 8.75377 54.2937 8.07875C53.9162 7.76263 53.7748 7.49406 53.913 7.35552C54.0635 7.20464 54.3336 7.32473 54.7483 7.72688C54.91 7.88356 55.0731 8.03268 55.1109 8.05827C55.3047 8.18936 55.6955 8.01078 55.6955 7.79106C55.6955 7.58608 55.4272 7.20221 55.0764 6.90521C54.825 6.69241 54.3293 6.43799 54.1108 6.40959C54.0267 6.39867 53.8641 6.4 53.7494 6.41257ZM24.2692 7.8609C24.2517 7.95524 24.2802 8.26341 24.3362 8.58572C24.3619 8.73348 24.3792 8.77361 24.4174 8.77361C24.4713 8.77361 24.9814 8.46117 24.9951 8.41976C25.0073 8.38319 24.3765 7.77032 24.3267 7.77032C24.3027 7.77032 24.279 7.80753 24.2692 7.8609ZM37.4577 8.41463C33.4313 8.81976 30.9049 9.38291 28.033 10.5153C18.6372 14.2201 11.5765 22.1414 9.25312 31.5844C8.85967 33.1834 8.65118 34.5252 8.51045 36.3639C8.46261 36.9888 8.46269 39.5847 8.51056 40.2517C8.69002 42.7522 9.05556 44.9044 9.65607 46.996C10.7567 50.8294 12.9288 54.8458 15.7139 58.1971C16.7562 59.4513 17.956 60.6689 19.1444 61.6785C24.106 65.8936 30.2798 68.4475 36.7348 68.9551C39.0719 69.1389 41.3221 69.0575 43.6852 68.7036C47.5296 68.1279 51.1305 66.8139 54.6222 64.7127C58.7696 62.2169 62.1403 58.973 64.7931 54.9247C67.0612 51.4634 68.4557 47.8055 69.2607 43.2058C69.4121 42.341 69.4843 41.6096 69.5387 40.391C69.6404 38.1147 69.586 35.9821 69.3886 34.5107C68.9536 31.2687 68.0635 28.3672 66.6356 25.5368C64.7352 21.7698 62.1465 18.5162 58.8669 15.7727C54.2873 11.9417 48.6874 9.44386 42.9624 8.67841C41.3442 8.46206 38.3921 8.3206 37.4577 8.41463ZM18.7611 9.05035C18.6847 9.10879 18.3488 9.36011 18.0148 9.60882C17.3619 10.095 16.8723 10.5015 16.7753 10.6381C16.7245 10.7096 16.7202 10.733 16.748 10.7864C16.8768 11.034 18.7346 13.5042 18.9111 13.6625C18.9689 13.7144 18.9743 13.7145 19.0741 13.6668C19.3216 13.5485 20.6477 12.613 21.0895 12.2451C21.1927 12.1591 21.2772 12.0707 21.2772 12.0486C21.2772 11.9911 21.0674 11.7424 20.8838 11.5823L20.7268 11.4453L20.1888 11.8476C19.6117 12.2793 19.4647 12.3687 19.3323 12.3687C19.2321 12.3687 19.0499 12.2171 18.9974 12.0899C18.9506 11.9766 18.9909 11.9203 19.3107 11.6527C19.4519 11.5345 19.6643 11.3411 19.7828 11.2228C19.9598 11.0462 19.9983 10.9922 19.9983 10.9207C19.9983 10.7439 19.785 10.4458 19.6586 10.4458C19.6183 10.4458 19.4254 10.5624 19.1763 10.7374C18.7182 11.0592 18.4797 11.1982 18.3856 11.1982C18.3011 11.1982 18.1078 11.0006 18.1078 10.9143C18.1078 10.8771 18.1363 10.8081 18.171 10.7608C18.3224 10.5551 19.247 9.76424 19.3732 9.7325C19.4538 9.71221 19.4594 9.66857 19.397 9.54558C19.3428 9.43876 18.9485 8.94013 18.9201 8.94244C18.9091 8.94333 18.8376 8.99188 18.7611 9.05035ZM58.9483 9.7068C58.4522 9.81884 58.0526 10.0705 57.768 10.45C57.4707 10.8464 57.3306 11.2628 57.3287 11.7556C57.3272 12.1372 57.3723 12.3357 57.5379 12.6753C57.632 12.8682 57.7001 12.9587 57.9047 13.163C58.1903 13.4482 58.3706 13.5644 58.7186 13.6877C58.9406 13.7663 58.993 13.774 59.3097 13.7746C59.6316 13.7752 59.6767 13.7685 59.9213 13.6834C60.0666 13.633 60.1956 13.5816 60.208 13.5693C60.2204 13.557 60.1171 13.4078 59.9785 13.2377C59.674 12.8638 59.5647 12.7905 59.2606 12.7563C58.7695 12.7011 58.4518 12.4084 58.319 11.8891C58.2323 11.5496 58.2962 11.4069 58.717 11.0006C59.0452 10.6837 59.138 10.6463 59.4871 10.6904C59.6861 10.7155 59.7884 10.7462 59.963 10.8331C60.3438 11.0228 60.6462 11.3472 60.6883 11.6114C60.7155 11.7816 60.7878 11.8228 61.0272 11.8043C61.13 11.7963 61.2829 11.7665 61.367 11.7379L61.5199 11.6859L61.5172 11.5187C61.5116 11.173 61.2039 10.6092 60.8331 10.2651C60.4315 9.89235 59.9658 9.69621 59.4371 9.67712C59.2297 9.66963 59.0699 9.67933 58.9483 9.7068ZM37.7291 10.3907C36.1468 10.4753 34.3591 10.7465 32.6897 11.1554C27.8762 12.3344 23.2963 14.7093 19.8454 17.816C14.656 22.4878 11.5955 28.1466 10.631 34.8534C10.5142 35.6658 10.4953 35.9082 10.4572 37.0817C10.3907 39.1277 10.5089 41.5658 10.7407 42.9271C11.8279 49.3124 15.0363 55.2633 19.6925 59.5305C20.9871 60.717 22.2861 61.6951 23.8362 62.6508C27.263 64.7634 31.0784 66.1586 35.2057 66.8082C36.3498 66.9883 38.6171 67.0816 40.457 67.0243C41.9584 66.9775 42.3902 66.9338 43.6799 66.6979C47.7697 65.9499 51.3207 64.5114 54.8197 62.1851C57.4445 60.4401 59.2984 58.8094 61.0465 56.7083C61.6959 55.9278 62.6421 54.6385 63.2378 53.7224C66.2782 49.0471 67.9347 42.78 67.6498 37.0299C67.4549 33.0966 66.4761 29.4956 64.628 25.9131C63.4016 23.5356 62.1411 21.7773 60.183 19.7122C55.4454 14.7158 49.1633 11.4724 42.5871 10.6278C41.1618 10.4448 38.8391 10.3314 37.7291 10.3907ZM64.1194 13.9265C63.4616 14.4989 62.9961 14.9715 62.8015 15.2644C62.2978 16.0227 62.3687 16.6712 63.0291 17.3473C63.3673 17.6935 63.6887 17.8814 64.0792 17.9612C64.5556 18.0586 65.0919 17.8898 65.7178 17.4454C65.8401 17.3586 66.1997 17.0305 66.517 16.7163L67.0939 16.145L66.8965 15.8802C66.6762 15.5847 66.5418 15.4343 66.4979 15.4344C66.4818 15.4344 66.3122 15.574 66.1211 15.7445C65.4097 16.3793 65.2965 16.4761 65.1063 16.6119C64.5241 17.0278 64.1389 17.0681 63.8189 16.7466C63.6262 16.5529 63.5254 16.3518 63.543 16.1957C63.5663 15.9884 63.7243 15.7978 64.5606 14.9681L65.3535 14.1815L65.2983 14.1181C65.2679 14.0833 65.1317 13.9294 64.9957 13.7761C64.8597 13.6228 64.7351 13.4824 64.7188 13.4639C64.6967 13.4389 64.5462 13.555 64.1194 13.9265ZM13.4464 13.4823C13.3979 13.4939 13.304 13.5353 13.2377 13.5742C13.0766 13.6689 12.64 14.1289 12.5237 14.3266C12.1188 15.015 12.1188 15.767 12.5237 16.4593C12.6485 16.6725 13.0202 17.0398 13.243 17.1699C13.7845 17.486 14.5606 17.531 15.1809 17.2821C15.5736 17.1245 15.9931 16.7693 16.1831 16.4336C16.3524 16.1345 16.4494 15.6496 16.3867 15.4163C16.3426 15.2519 16.1857 15.1198 15.9405 15.0407C15.683 14.9575 15.661 14.9715 15.6143 15.2487C15.5657 15.5372 15.4496 15.7558 15.2114 16.0071C15.0541 16.1731 14.9645 16.2404 14.7764 16.3339C14.5608 16.4409 14.5205 16.4515 14.3289 16.4515C14.1482 16.4515 14.0965 16.4398 13.9654 16.3688C13.7493 16.2518 13.4124 15.9055 13.3049 15.69C13.1891 15.4576 13.1707 15.3179 13.227 15.0977C13.3437 14.641 13.6842 14.3753 14.1524 14.3753C14.3032 14.3753 14.3394 14.3652 14.3975 14.3069C14.4635 14.2407 14.4658 14.2255 14.4658 13.847V13.4556L14.0001 13.4585C13.744 13.46 13.4948 13.4708 13.4464 13.4823ZM37.972 15.9394C33.7957 16.1887 29.767 17.8608 26.6429 20.6416C26.2671 20.9762 25.4983 21.7435 25.1588 22.1229C23.426 24.0597 22.1686 26.1929 21.3489 28.5865C20.3005 31.6482 20.0572 35.0025 20.6548 38.1545L20.7274 38.5377H24.7645H28.8016L28.6795 38.1824C28.4262 37.4453 28.2648 36.6779 28.184 35.8269C28.1213 35.1661 28.1416 33.7754 28.2226 33.1835C28.3847 31.999 28.6719 31.0287 29.1605 30.015C29.4497 29.4149 29.6116 29.1271 29.9394 28.6303C30.3425 28.0192 30.7605 27.5281 31.4704 26.8317C32.4118 25.9082 33.0148 25.4715 34.1215 24.912C35.3588 24.2865 36.5766 23.9174 37.9164 23.762C38.3259 23.7145 39.6827 23.7147 40.1127 23.7623C42.2874 24.0031 44.2501 24.828 45.9699 26.2239C46.4028 26.5754 47.1993 27.3827 47.5602 27.836C48.8448 29.4493 49.6614 31.3704 49.8764 33.2844C49.9364 33.8196 49.9444 35.5058 49.8894 36.0295C49.8171 36.7168 49.6612 37.4085 49.4135 38.1406L49.2792 38.5377H53.317H57.3547L57.3871 38.3914C57.4534 38.0922 57.5849 37.2539 57.6417 36.768C57.7168 36.1267 57.7468 34.3782 57.7009 33.3262C57.6697 32.6128 57.5776 31.9117 57.3897 30.9574C56.8463 28.1979 55.4424 25.2087 53.6225 22.9361C53.0865 22.2667 52.2589 21.4034 51.4558 20.6756C50.6777 19.9706 50.2565 19.642 49.3984 19.0705C46.0231 16.8225 41.9368 15.7028 37.972 15.9394ZM9.75343 18.3622C8.81246 18.5933 8.23408 19.1223 7.97127 19.9923C7.90605 20.2082 7.89568 20.2923 7.89398 20.6179C7.89176 21.0522 7.94639 21.2974 8.12026 21.6339C8.24005 21.8657 8.59497 22.2387 8.80818 22.3569C9.3629 22.6644 10.3137 22.6972 10.8687 22.4279C11.2296 22.2527 11.6748 21.7766 11.8964 21.3286C12.0589 21.0003 12.1124 20.7433 12.0938 20.3811C12.0551 19.6253 11.6062 18.9363 10.9304 18.5951C10.5684 18.4123 10.004 18.3007 9.75343 18.3622ZM68.8734 19.122C67.9493 19.6239 66.1767 20.6671 66.1767 20.709C66.1767 20.7528 66.3742 21.106 66.6632 21.5794C67.2414 22.5263 67.6901 23.1819 67.7601 23.1819C67.8075 23.1819 67.9789 23.0616 68.2104 22.866L68.3368 22.7591L68.0068 22.1692C67.8253 21.8449 67.6564 21.5149 67.6314 21.4359C67.5884 21.2996 67.5888 21.2879 67.639 21.2017C67.6681 21.1519 67.7385 21.0868 67.7955 21.0572C68.0077 20.9468 68.1946 21.098 68.4703 21.6033C68.7139 22.0499 68.9234 22.2628 69.0804 22.2233C69.1705 22.2006 69.285 22.1027 69.3352 22.0056C69.3983 21.8831 69.3585 21.753 69.0784 21.1652C68.7785 20.536 68.7754 20.5194 68.9323 20.3847C69.0713 20.2654 69.157 20.2365 69.2481 20.2781C69.3509 20.3251 69.5486 20.6281 69.8262 21.1647C70.1217 21.7357 70.1343 21.7471 70.3829 21.6685C70.5522 21.615 70.7639 21.4478 70.7639 21.3677C70.7639 21.1573 69.4096 18.9176 69.2826 18.9181C69.264 18.9181 69.0799 19.0099 68.8734 19.122ZM9.54492 19.4811C9.32137 19.5669 9.04844 19.8488 8.91243 20.1343C8.82269 20.3227 8.80818 20.3803 8.80818 20.5483C8.80818 20.7964 8.90076 20.9973 9.11327 21.2104C9.57898 21.6772 10.2468 21.7099 10.7189 21.2889C10.887 21.139 11.0364 20.8409 11.0715 20.5854C11.1115 20.2935 11.0617 20.1491 10.8327 19.8935C10.4775 19.4972 9.94646 19.3271 9.54492 19.4811ZM46.7282 21.0708C45.9172 21.887 45.0549 22.76 44.812 23.0108C44.3726 23.4645 44.3707 23.4671 44.4317 23.5131C44.4654 23.5387 44.7078 23.6783 44.9704 23.8236C46.9995 24.9459 48.702 26.6715 49.9399 28.8605C50.098 29.1401 50.2348 29.3688 50.2439 29.3688C50.253 29.3688 51.1294 28.4977 52.1914 27.433L54.1224 25.4972L53.8552 25.099C52.684 23.3533 51.5162 22.0654 49.9962 20.8432C49.4481 20.4025 48.2958 19.5868 48.2214 19.5868C48.2112 19.5868 47.5392 20.2546 46.7282 21.0708ZM29.5748 19.7852C28.7389 20.264 27.4005 21.3524 26.4895 22.294C25.6266 23.186 25.0261 23.9253 24.2975 24.9931L23.9458 25.5083L24.8009 26.3677C25.2711 26.8404 26.1479 27.7108 26.7492 28.3019C27.6752 29.2123 27.8482 29.3707 27.8799 29.3379C27.9006 29.3166 28.0238 29.0965 28.1537 28.8489C28.4211 28.3395 28.6396 27.9826 28.9443 27.5573C29.6536 26.5677 30.6465 25.5309 31.5247 24.8632C31.9794 24.5175 33.1398 23.7823 33.546 23.5826C33.6332 23.5398 33.7045 23.4975 33.7045 23.4888C33.7045 23.4353 32.9323 22.6263 31.7467 21.4378C30.4471 20.1351 29.9285 19.6425 29.8564 19.6425C29.8385 19.6425 29.7117 19.7067 29.5748 19.7852ZM38.2222 27.5491C37.684 27.622 37.1654 27.7347 36.8113 27.8557L36.5958 27.9293V30.066V32.2027L36.0746 32.2209C35.7879 32.2309 34.9965 32.2408 34.3161 32.2428C33.6357 32.2447 32.8983 32.2542 32.6775 32.2637L32.276 32.2811L32.1581 32.7536C31.9778 33.4761 31.946 33.7346 31.9322 34.5943C31.9188 35.4206 31.9462 35.7449 32.0795 36.3373C32.1774 36.7727 32.2263 36.8757 32.3698 36.9491C32.5519 37.0422 32.9433 37.0597 34.8545 37.0602L36.6023 37.0607L36.5914 37.7992L36.5805 38.5377H39.0007H41.4208L41.4099 37.7992L41.399 37.0607H43.5673H45.7355L45.8343 36.7053C46.0438 35.9511 46.1117 35.448 46.1117 34.65C46.1117 34.0645 46.0721 33.6309 45.9753 33.159C45.9266 32.9214 45.7554 32.2828 45.729 32.2399C45.7173 32.221 44.9918 32.2115 43.5585 32.2115H41.4055V30.0689V27.9264L41.1066 27.8274C40.5066 27.6285 39.7285 27.527 38.8555 27.5336C38.5531 27.5359 38.2681 27.5429 38.2222 27.5491ZM6.06973 28.0276C5.76964 28.1243 5.54052 28.3242 5.41088 28.6024C5.34363 28.7468 5.33298 28.804 5.33298 29.021C5.33298 29.2482 5.34166 29.2901 5.42309 29.4559C5.53193 29.6776 5.7313 29.8734 5.95246 29.976C6.07929 30.0348 6.15385 30.0498 6.32127 30.0503C6.50259 30.0508 6.55609 30.0386 6.71486 29.9602C6.94536 29.8464 7.17848 29.6191 7.28265 29.4064C7.35182 29.2652 7.36241 29.2118 7.36183 29.0065C7.36127 28.8055 7.35007 28.7484 7.28788 28.6292C7.16007 28.3843 6.90288 28.1853 6.53448 28.0463C6.31491 27.9635 6.27401 27.9618 6.06973 28.0276ZM71.4121 28.0533C71.127 28.1554 70.9144 28.3519 70.7853 28.6325C70.7338 28.7445 70.7223 28.8181 70.7223 29.0344C70.7222 29.2825 70.7281 29.3101 70.8165 29.4734C70.9351 29.6927 71.1049 29.8506 71.3428 29.9629C71.6887 30.1263 72.0966 30.0695 72.3822 29.8181C72.6329 29.5975 72.7719 29.2208 72.7153 28.9156C72.6492 28.5591 72.4233 28.2519 72.1171 28.1019C71.9045 27.9976 71.6219 27.9782 71.4121 28.0533ZM36.3734 39.6442C35.4115 39.8093 34.301 40.0322 33.7462 40.1714C32.2605 40.5443 30.3716 41.2161 30.2454 41.4167C30.2081 41.476 30.2477 41.5056 30.6046 41.6847C30.9458 41.856 31.3113 42.086 32.0406 42.5884L32.6007 42.9744L33.2429 42.791C35.3389 42.1928 36.022 42.0972 38.1944 42.0985C40.1623 42.0997 40.2508 42.1123 43.2404 42.8123C45.794 43.4101 46.6578 43.5268 48.2423 43.4874C49.9738 43.4445 50.6139 43.3563 51.6118 43.0232C52.5076 42.7242 54.2255 41.888 54.9031 41.4212C55.0408 41.3264 55.2785 41.1759 55.4314 41.0868C55.7526 40.8996 56.1125 40.6619 56.1125 40.6369C56.1125 40.5973 55.662 40.6646 54.9588 40.8092C52.697 41.2742 50.7336 41.3799 48.5088 41.1565C47.2038 41.0255 46.113 40.829 44.4006 40.4168C42.0167 39.8428 41.2338 39.7193 39.5567 39.6529C38.8856 39.6263 36.5153 39.6198 36.3734 39.6442ZM65.2314 39.6435C64.4994 39.7187 64.0351 39.7774 63.7023 39.837C61.5818 40.2168 58.9327 41.308 54.8475 43.4845C53.7717 44.0577 51.208 45.4539 51.1777 45.4831C51.1295 45.5296 53.4535 45.4904 53.8606 45.4379C55.2662 45.2564 56.4994 44.9005 59.4487 43.8253C60.8128 43.328 61.4606 43.1154 62.3959 42.8578C63.5997 42.5263 64.2416 42.3949 65.3565 42.2517L65.5233 42.2303L65.5707 41.8541C65.6742 41.0327 65.7015 40.34 65.6461 39.9409C65.5996 39.6056 65.5997 39.6057 65.2314 39.6435ZM26.8931 39.7343C27.0461 39.8239 27.6604 40.0738 27.7595 40.0868C27.8647 40.1006 27.9155 40.0851 28.1581 39.9652C28.311 39.8897 28.4799 39.8009 28.5334 39.7681L28.6307 39.7084L27.741 39.7092C27.2185 39.7096 26.8686 39.72 26.8931 39.7343ZM20.457 41.26C18.9925 41.3108 16.9869 41.7664 15.2998 42.4315C14.7503 42.6482 13.89 43.0636 13.2981 43.3982C13.0611 43.5321 12.8576 43.6511 12.8458 43.6626C12.7613 43.745 13.3389 45.7318 13.5944 46.238C13.6521 46.3523 13.6709 46.3692 13.7233 46.3535C13.9107 46.2971 14.1947 46.1564 14.5844 45.9269C16.5114 44.7917 18.6237 44.1551 20.8955 44.0249C21.8168 43.9721 22.9863 44.0513 23.8352 44.2239C24.7119 44.4022 26.6234 44.9697 30.3266 46.151C31.0851 46.393 32.2719 46.8166 32.8252 47.0427C33.4476 47.2972 33.9428 47.4837 33.9957 47.4837C34.019 47.4837 34.0381 47.4731 34.0381 47.4601C34.0381 47.3418 32.4747 45.7811 31.675 45.101C30.9182 44.4574 29.8051 43.7103 28.8146 43.1812C27.1761 42.3058 25.2787 41.667 23.6403 41.4392C22.869 41.332 21.3055 41.226 20.8045 41.247C20.7357 41.2499 20.5794 41.2557 20.457 41.26ZM35.7201 44.2822C35.512 44.3019 35.1818 44.3528 34.3787 44.4889C34.329 44.4973 34.2883 44.5179 34.2883 44.5346C34.2883 44.6173 35.704 46.1918 36.1164 46.5678C36.3677 46.797 36.4721 46.8391 36.907 46.8863C38.6905 47.08 40.8267 47.6403 43.5184 48.6202C45.2541 49.2521 46.5001 49.6032 47.6886 49.7951C49.5415 50.0945 51.5385 50.0381 53.5548 49.6294C55.9784 49.1381 58.2276 48.0708 60.6025 46.285C61.2315 45.812 61.9669 45.2263 61.9318 45.2263C61.8899 45.2263 61.1232 45.4896 59.3514 46.1123C56.9118 46.9697 55.9475 47.279 54.9866 47.5121C53.6812 47.8288 52.8157 47.9201 51.3724 47.893C50.1585 47.8702 49.6422 47.8117 48.5922 47.5779C47.4698 47.328 46.5469 47.0156 44.1578 46.0765C42.6758 45.494 42.3652 45.3781 41.5723 45.1123C40.1362 44.6307 38.9522 44.3661 37.8483 44.28C37.4142 44.2462 36.0852 44.2475 35.7201 44.2822ZM63.9526 46.8393C63.0744 47.1949 61.8351 47.8126 60.4218 48.599C57.7581 50.0811 55.6707 50.9718 53.696 51.4689C52.4751 51.7762 52.0276 51.8158 49.7738 51.8159C47.2377 51.8161 47.0892 51.7956 43.9493 51.0128C42.2496 50.5891 41.0514 50.3115 40.0988 50.1209C39.5197 50.0051 38.9915 49.9222 38.9699 49.9437C38.9349 49.9789 39.0309 50.086 39.3243 50.3387C40.6954 51.5199 42.3238 52.5708 44.0049 53.3594C45.7246 54.1661 46.9538 54.5077 48.8007 54.6922C49.477 54.7597 50.8764 54.7594 51.567 54.6915C54.1034 54.4419 55.5206 54.0435 58.0725 52.8624C58.3783 52.7208 59.3542 52.2473 60.2411 51.8102C61.8688 51.0079 62.683 50.6173 62.9378 50.5163C63.1116 50.4475 63.1636 50.4008 63.2444 50.241C63.4011 49.9314 64.5086 46.8389 64.5086 46.7112C64.5086 46.6415 64.3515 46.6777 63.9526 46.8393ZM23.2511 47.0265C22.684 47.0492 21.9303 47.0989 21.5918 47.136C20.0554 47.3042 17.8988 48.1543 16.2777 49.2307C15.7122 49.6063 15.3466 49.9071 15.2745 50.0564C15.2426 50.1226 15.2164 50.2108 15.2164 50.2524C15.2164 50.3661 15.3144 50.6352 15.4658 50.9377C15.5776 51.1611 16.2646 52.4411 16.2859 52.4657C16.2894 52.4698 16.4224 52.3651 16.5815 52.2331C17.0991 51.8036 18.0998 51.1675 18.854 50.7885C21.351 49.5338 25.0639 49.3841 28.5889 50.396C29.1631 50.5608 29.9803 50.84 30.5572 51.0686C32.4672 51.8252 34.1284 52.7835 38.2639 55.5141C42.5313 58.3319 44.5854 59.3374 47.1048 59.8419C47.964 60.0139 48.9879 60.1455 49.8572 60.1955C51.4672 60.2881 53.6764 60.0474 54.7183 59.6657C55.3366 59.4393 56.1331 58.9207 57.03 58.1608C57.6801 57.6099 58.8913 56.3755 59.1244 56.0261C59.2524 55.8342 59.2273 55.8317 58.8322 55.9962C58.5178 56.1271 57.8382 56.3367 57.0578 56.5436C55.7816 56.8818 54.7364 57.0856 53.5826 57.2211C52.49 57.3494 52.2324 57.3633 50.9692 57.3621C49.9052 57.3611 49.6899 57.3534 49.1778 57.2976C46.9923 57.0595 45.2153 56.515 43.1709 55.4569C42.0391 54.8712 40.7899 54.1166 38.7226 52.7698C35.3718 50.5868 33.7213 49.6365 31.8279 48.7998C29.4251 47.7381 27.6425 47.2503 25.5447 47.0802C25.0473 47.0399 23.7029 47.0084 23.2511 47.0265ZM23.2372 52.7257C22.319 52.7621 21.7125 52.846 20.9019 53.0489C19.502 53.3993 18.1233 53.987 17.7791 54.38C17.6896 54.4821 17.677 54.5218 17.708 54.603C17.7354 54.6744 17.8786 54.7356 17.9708 54.7153C18.0371 54.7006 18.0491 54.7054 18.0355 54.7408C18.0124 54.8011 18.175 55.0823 18.4588 55.4728C18.7851 55.9218 19.0747 56.2598 19.149 56.2785C19.1884 56.2884 19.2998 56.2529 19.4568 56.1801C19.9387 55.9569 21.118 55.6182 21.7368 55.5253C22.2183 55.453 23.2717 55.4186 24.4466 55.4367C25.865 55.4587 26.1863 55.4933 27.1016 55.7225C29.334 56.2818 31.1798 57.0962 33.3013 58.4582C34.0253 58.923 34.5211 59.2681 35.6506 60.0937C36.9072 61.0123 38.4575 62.0534 39.2184 62.4896C41.087 63.5609 43.0095 64.2307 44.6266 64.3741C45.9585 64.4921 48.1885 63.8899 49.6695 63.0123C50.0538 62.7846 49.9739 62.7473 48.9724 62.6863C48.6005 62.6636 48.12 62.6193 47.9046 62.5878C46.1845 62.3358 44.0807 61.7914 42.601 61.2153C41.3384 60.7238 39.0869 59.397 37.2909 58.0862C33.923 55.628 31.2572 54.1628 28.8049 53.4219C27.3845 52.9928 26.1921 52.7907 24.6829 52.7233C24.0199 52.6936 24.0504 52.6936 23.2372 52.7257ZM21.7498 57.9788C21.4074 58.0197 21.1938 58.0838 21.1938 58.1455C21.1938 58.2208 22.1121 58.9971 22.7646 59.4734C23.5151 60.0213 24.4254 60.4995 25.6446 60.9865C26.7544 61.4299 27.4187 61.7391 29.8957 62.9652C32.3487 64.1796 32.846 64.3977 33.7958 64.6761C34.7703 64.9618 36.8983 65.2909 38.4935 65.4026C39.0735 65.4432 39.0741 65.4318 38.5093 65.1257C37.9262 64.8097 37.185 64.3603 36.1093 63.6706C35.2036 63.0899 34.7375 62.8117 34.6704 62.8117C34.6455 62.8117 34.5564 62.7513 34.4723 62.6776C34.2113 62.4486 32.762 61.4975 31.7028 60.86C29.6655 59.6338 27.7906 58.8195 25.9339 58.3543C25.2937 58.1939 24.6457 58.0976 23.6681 58.0178C23.2975 57.9875 21.9123 57.9593 21.7498 57.9788ZM38.8685 70.9503C38.5653 71.0263 38.2521 71.2846 38.1094 71.5765C38.0362 71.7261 38.0277 71.7714 38.028 72.0084C38.0284 72.2408 38.0374 72.2902 38.1021 72.4125C38.2758 72.7409 38.5992 72.9386 39.0594 72.9977C39.2955 73.028 39.4075 72.9797 39.6582 72.7395C39.9087 72.4996 40.0043 72.356 40.0396 72.1662C40.1097 71.7903 39.7913 71.2003 39.4212 71.0201C39.2597 70.9415 39.0229 70.9116 38.8685 70.9503Z" fill="#141B35"/>
</svg>
